<svg xmlns="http://www.w3.org/2000/svg" viewBox="0 0 120 120">
  <defs>
    <linearGradient id="g" x1="0" x2="1" y1="0" y2="1">
      <stop offset="0%" stop-color="#3b82f6"/>
      <stop offset="60%" stop-color="#6366f1"/>
      <stop offset="100%" stop-color="#8b5cf6"/>
    </linearGradient>
  </defs>
  <rect width="120" height="120" rx="28" fill="#0d1117"/>
  <path fill="url(#g)" d="M38 90V30h18c8.4 0 15 2 19.8 6.2 4.8 4.1 7.2 9.7 7.2 16.7 0 7.3-2.4 13-7.2 17.2C71 74.3 64.4 76.4 56 76.4H48V90H38Zm10-28.8h8c5.1 0 9-.9 11.6-2.8 2.6-1.9 3.9-5 3.9-9.3 0-4.1-1.3-7.1-3.9-9-2.6-1.9-6.5-2.9-11.6-2.9h-8v24z"/>
</svg>
